<svg xmlns="http://www.w3.org/2000/svg" viewBox="0 0 1200 960" role="img" aria-labelledby="title desc">
  <title id="title">Illustration Ethik und Zukunft</title>
  <desc id="desc">Helle Illustration zu künstlicher Intelligenz, Ethik, Verantwortung und Zukunft.</desc>
  <defs>
    <linearGradient id="bg" x1="0%" y1="0%" x2="100%" y2="100%">
      <stop offset="0%" stop-color="#eef8ff"/>
      <stop offset="50%" stop-color="#fff4ea"/>
      <stop offset="100%" stop-color="#f3fff9"/>
    </linearGradient>
    <filter id="shadow" x="-20%" y="-20%" width="140%" height="140%">
      <feDropShadow dx="0" dy="18" stdDeviation="20" flood-color="#d9cadf" flood-opacity="0.34"/>
    </filter>
  </defs>
  <rect width="1200" height="960" fill="url(#bg)"/>
  <circle cx="210" cy="150" r="110" fill="#ffe4d6"/>
  <circle cx="1010" cy="800" r="150" fill="#e4f4ff"/>
  <g filter="url(#shadow)">
    <rect x="120" y="116" width="960" height="728" rx="42" fill="#fffdfa"/>
  </g>
  <g transform="translate(198 218)">
    <rect x="0" y="0" width="326" height="228" rx="32" fill="#e6f4ff"/>
    <circle cx="164" cy="114" r="74" fill="#ffffff"/>
    <path d="M164 76c24 0 44 20 44 44 0 16-8 30-20 38v34h-48v-34c-12-8-20-22-20-38 0-24 20-44 44-44Z" fill="#8ed7d8"/>
    <path d="M142 214h44" stroke="#7c8d9b" stroke-width="12" stroke-linecap="round"/>
  </g>
  <g transform="translate(590 210)">
    <rect x="0" y="0" width="388" height="248" rx="34" fill="#fff2e9"/>
    <rect x="34" y="36" width="160" height="18" rx="9" fill="#ffc8a1"/>
    <rect x="34" y="74" width="260" height="14" rx="7" fill="#ffffff"/>
    <rect x="34" y="108" width="224" height="14" rx="7" fill="#ffffff"/>
    <path d="M318 72c18 0 34 16 34 34v54c0 18-16 34-34 34s-34-16-34-34v-54c0-18 16-34 34-34Z" fill="#ffffff"/>
    <path d="M318 102v64M286 134h64" stroke="#9ecfe5" stroke-width="12" stroke-linecap="round"/>
  </g>
  <g transform="translate(232 548)">
    <rect x="0" y="0" width="738" height="182" rx="34" fill="#f9fcff" stroke="#ddefff" stroke-width="4"/>
    <circle cx="126" cy="92" r="54" fill="#cfe8ff"/>
    <path d="M126 58c22 0 40 18 40 40s-18 40-40 40-40-18-40-40 18-40 40-40Z" fill="#ffbe98"/>
    <path d="M240 56h392M240 96h328M240 136h424" stroke="#96aaba" stroke-width="14" stroke-linecap="round"/>
    <circle cx="652" cy="92" r="36" fill="#d7f5e8"/>
    <path d="M640 92h24M652 80v24" stroke="#5f8a7f" stroke-width="10" stroke-linecap="round"/>
  </g>
</svg>
