<svg xmlns="http://www.w3.org/2000/svg" viewBox="0 0 1200 700"><rect width="1200" height="700" fill="#e7cfab"/><rect x="160" y="150" width="880" height="400" rx="36" fill="#f7edd8"/><g transform="translate(320 210)"><rect width="560" height="250" rx="34" fill="#f2e2bd"/><path d="M46 60c44-22 106-22 150 0 44-22 106-22 150 0 44-22 106-22 150 0v128c-44-22-106-22-150 0-44-22-106-22-150 0-44-22-106-22-150 0z" fill="#d4b07b"/><path d="M280 60v128" stroke="#b78658" stroke-width="12"/></g><circle cx="240" cy="538" r="46" fill="#cf9d49" opacity=".55"/><circle cx="964" cy="162" r="60" fill="#fff1c9" opacity=".6"/></svg>
