<svg xmlns="http://www.w3.org/2000/svg" viewBox="0 0 1600 700" role="img" aria-labelledby="title desc">
  <title id="title">Vorbeigehen am Verletzten</title>
  <desc id="desc">Ein verletzter Mensch liegt im Vordergrund, während zwei Figuren mit Abstand auf dem Hangweg weitergehen.</desc>
  <defs>
    <linearGradient id="sky" x1="0" x2="0" y1="0" y2="1">
      <stop offset="0%" stop-color="#95bfd0"/>
      <stop offset="100%" stop-color="#f0d2a0"/>
    </linearGradient>
    <filter id="shadow" x="-20%" y="-20%" width="140%" height="140%">
      <feDropShadow dx="0" dy="10" stdDeviation="12" flood-color="#5d3e24" flood-opacity="0.24"/>
    </filter>
  </defs>

  <rect width="1600" height="700" fill="url(#sky)"/>
  <circle cx="1180" cy="118" r="74" fill="#f3cf69" opacity="0.86"/>
  <path d="M0 388c170-74 314-88 490-28 156 54 300 58 448 6 184-66 350-62 662 38v296H0z" fill="#b98c5f"/>
  <path d="M0 500c170-42 302-32 468 36 134 54 278 54 428-6 158-62 344-74 704 30v140H0z" fill="#865f3b"/>
  <path d="M460 430c82-20 182-6 272 44 94 52 168 66 272 42 90-22 140-58 194-102 10 56-14 108-74 142-84 46-208 60-320 28-124-36-208-88-344-154z" fill="#ddb482"/>

  <g filter="url(#shadow)" transform="translate(374 448)">
    <ellipse cx="0" cy="90" rx="142" ry="28" fill="#5f4028" opacity="0.24"/>
    <rect x="-120" y="54" width="240" height="42" rx="18" fill="#b85444"/>
    <circle cx="-122" cy="76" r="28" fill="#d6a178"/>
    <path d="M-30 58l64-28" stroke="#efe6d2" stroke-width="14" stroke-linecap="round"/>
    <rect x="-88" y="38" width="44" height="20" rx="10" fill="#7b6045"/>
  </g>

  <g filter="url(#shadow)" transform="translate(918 262)">
    <circle cx="0" cy="0" r="42" fill="#f0c494"/>
    <path d="M-38 40c12-12 24-18 38-18 24 0 44 12 56 32v154c0 22-18 40-40 40h-32c-22 0-40-18-40-40z" fill="#9c7142"/>
    <rect x="-26" y="208" width="16" height="102" rx="8" fill="#6f4f34"/>
    <rect x="10" y="208" width="16" height="102" rx="8" fill="#6f4f34"/>
    <path d="M-42 86l-46 30" stroke="#9c7142" stroke-width="16" stroke-linecap="round"/>
  </g>

  <g filter="url(#shadow)" transform="translate(1096 236)">
    <circle cx="0" cy="0" r="42" fill="#e5b482"/>
    <path d="M-38 40c12-12 24-18 38-18 24 0 44 12 56 32v154c0 22-18 40-40 40h-32c-22 0-40-18-40-40z" fill="#5d6e48"/>
    <rect x="-26" y="208" width="16" height="102" rx="8" fill="#6f4f34"/>
    <rect x="10" y="208" width="16" height="102" rx="8" fill="#6f4f34"/>
    <path d="M-40 84l-40 24" stroke="#5d6e48" stroke-width="16" stroke-linecap="round"/>
  </g>

  <path d="M126 626c98-18 180-14 244 18-90 24-172 24-244-18z" fill="#6a4c33" opacity="0.28"/>
</svg>
