<svg xmlns="http://www.w3.org/2000/svg" viewBox="0 0 1200 700"><rect width="1200" height="700" fill="#e4c899"/><rect y="0" width="1200" height="260" fill="#9ac2d6"/><path d="M0 446c160-80 314-88 500-18 164 62 328 66 506 18 72-20 136-28 194-24v278H0z" fill="#b78658"/><g transform="translate(442 390)"><ellipse cx="174" cy="184" rx="176" ry="34" fill="#674a2d" opacity=".18"/><path d="M80 44c44-20 102-16 140 20 40 38 34 102-18 134l-112 70-36-20 72-76c-18-30-18-70-46-96z" fill="#8a6845"/><circle cx="154" cy="74" r="44" fill="#e6b17e"/><rect x="126" y="114" width="60" height="118" rx="22" fill="#57704c"/><rect x="10" y="182" width="148" height="36" rx="18" fill="#b65446"/><circle cx="8" cy="198" r="24" fill="#d8a379"/></g></svg>
