<svg xmlns="http://www.w3.org/2000/svg" viewBox="0 0 1600 700" role="img" aria-labelledby="title desc">
  <title id="title">Herberge und Nachsorge</title>
  <desc id="desc">Eine Herberge bei Abendlicht mit offenem Eingang, warmen Fenstern und zwei Figuren vor dem Haus.</desc>
  <defs>
    <linearGradient id="sky" x1="0" x2="0" y1="0" y2="1">
      <stop offset="0%" stop-color="#efc486"/>
      <stop offset="100%" stop-color="#946755"/>
    </linearGradient>
    <filter id="shadow" x="-20%" y="-20%" width="140%" height="140%">
      <feDropShadow dx="0" dy="10" stdDeviation="12" flood-color="#5c3b22" flood-opacity="0.24"/>
    </filter>
  </defs>

  <rect width="1600" height="700" fill="url(#sky)"/>
  <circle cx="1192" cy="136" r="72" fill="#ffe2a1" opacity="0.84"/>
  <path d="M0 462c218-84 408-84 620 0 180 72 336 70 508 8 142-50 282-56 472-10v240H0z" fill="#956946"/>
  <path d="M0 558c186-30 324-18 494 48 138 54 304 62 474 22 170-40 340-48 632 26v46H0z" fill="#7b5437"/>

  <g filter="url(#shadow)">
    <rect x="344" y="242" width="612" height="292" rx="18" fill="#c99962"/>
    <path d="M312 276l338-168 338 168z" fill="#7d5235"/>
    <rect x="528" y="412" width="238" height="122" rx="22" fill="#6f482d"/>
    <rect x="420" y="310" width="84" height="114" rx="16" fill="#ffda98" opacity="0.82"/>
    <rect x="560" y="310" width="84" height="114" rx="16" fill="#ffda98" opacity="0.82"/>
    <rect x="700" y="310" width="84" height="114" rx="16" fill="#ffda98" opacity="0.82"/>
    <rect x="840" y="310" width="84" height="114" rx="16" fill="#ffda98" opacity="0.82"/>
    <rect x="628" y="188" width="44" height="72" rx="10" fill="#6d462d"/>
    <path d="M384 534h534" stroke="#6d462d" stroke-width="10" stroke-linecap="round" opacity="0.4"/>
  </g>

  <g filter="url(#shadow)" transform="translate(1062 410)">
    <circle cx="0" cy="0" r="40" fill="#efc095"/>
    <path d="M-36 40c10-12 22-18 36-18 22 0 42 10 54 30v156c0 22-18 40-40 40h-28c-22 0-40-18-40-40z" fill="#506850"/>
    <rect x="-24" y="204" width="16" height="88" rx="8" fill="#68472d"/>
    <rect x="8" y="204" width="16" height="88" rx="8" fill="#68472d"/>
  </g>

  <g filter="url(#shadow)" transform="translate(1206 436)">
    <circle cx="0" cy="0" r="40" fill="#d8a67a"/>
    <path d="M-36 40c10-12 22-18 36-18 22 0 42 10 54 30v156c0 22-18 40-40 40h-28c-22 0-40-18-40-40z" fill="#b25f49"/>
    <rect x="-24" y="204" width="16" height="88" rx="8" fill="#68472d"/>
    <rect x="8" y="204" width="16" height="88" rx="8" fill="#68472d"/>
  </g>

  <circle cx="1240" cy="490" r="28" fill="#f0cf68"/>
  <circle cx="1284" cy="518" r="22" fill="#f0cf68"/>
</svg>
