<svg xmlns="http://www.w3.org/2000/svg" viewBox="0 0 1600 700" role="img" aria-labelledby="title desc">
  <title id="title">Herberge und Nachsorge</title>
  <desc id="desc">Eine Herberge in Abendstimmung mit warmem Licht und Figuren im Vordergrund.</desc>
  <defs>
    <linearGradient id="sky" x1="0" x2="0" y1="0" y2="1">
      <stop offset="0%" stop-color="#f3c98e"/>
      <stop offset="100%" stop-color="#9c6f59"/>
    </linearGradient>
  </defs>
  <rect width="1600" height="700" fill="url(#sky)"/>
  <circle cx="1194" cy="134" r="74" fill="#ffe39d" opacity="0.84"/>
  <path d="M0 458c212-82 404-82 620 2 182 70 334 70 508 8 142-50 280-56 472-10v242H0z" fill="#966947"/>
  <path d="M348 238h594v272H348z" fill="#c79a63"/>
  <path d="M316 274l330-164 332 164z" fill="#7d5135"/>
  <rect x="420" y="306" width="94" height="118" rx="18" fill="#825434"/>
  <rect x="566" y="306" width="94" height="118" rx="18" fill="#825434"/>
  <rect x="714" y="306" width="94" height="118" rx="18" fill="#825434"/>
  <rect x="532" y="406" width="214" height="104" rx="22" fill="#6f472d"/>
  <rect x="436" y="322" width="62" height="86" rx="12" fill="#ffd38d" opacity="0.8"/>
  <rect x="582" y="322" width="62" height="86" rx="12" fill="#ffd38d" opacity="0.8"/>
  <rect x="730" y="322" width="62" height="86" rx="12" fill="#ffd38d" opacity="0.8"/>
  <g transform="translate(1060 404)">
    <circle cx="0" cy="0" r="40" fill="#efc095"/>
    <rect x="-36" y="40" width="72" height="162" rx="24" fill="#506850"/>
    <rect x="-24" y="196" width="18" height="90" rx="9" fill="#69472d"/>
    <rect x="6" y="196" width="18" height="90" rx="9" fill="#69472d"/>
  </g>
  <g transform="translate(1200 432)">
    <circle cx="0" cy="0" r="40" fill="#d8a67a"/>
    <rect x="-36" y="40" width="72" height="162" rx="24" fill="#b25e49"/>
    <rect x="-24" y="196" width="18" height="90" rx="9" fill="#69472d"/>
    <rect x="6" y="196" width="18" height="90" rx="9" fill="#69472d"/>
  </g>
  <circle cx="1244" cy="486" r="30" fill="#f2d060"/>
  <circle cx="1288" cy="516" r="24" fill="#f2d060"/>
</svg>
