<svg xmlns="http://www.w3.org/2000/svg" viewBox="0 0 1200 700"><rect width="1200" height="700" fill="#ccb08a"/><rect y="0" width="1200" height="260" fill="#9bc2d0"/><path d="M0 438c188-84 352-92 544-20 152 56 294 62 446 20 78-22 148-34 210-34v296H0z" fill="#a77a51"/><ellipse cx="586" cy="520" rx="244" ry="52" fill="#694b2e" opacity=".22"/><rect x="442" y="468" width="284" height="54" rx="22" fill="#b65446"/><circle cx="438" cy="494" r="38" fill="#d6a177"/><path d="M426 474c14-16 34-20 52-10-6 10-10 16-10 26-14-2-28-6-42-16z" fill="#5b4332"/><path d="M562 444l98 20" stroke="#f5efdf" stroke-width="18" stroke-linecap="round"/></svg>
