<svg xmlns="http://www.w3.org/2000/svg" viewBox="0 0 1200 700"><rect width="1200" height="700" fill="#d6c09d"/><rect y="0" width="1200" height="260" fill="#8eb7c8"/><path d="M0 420c138-86 286-90 464-10 160 72 302 72 468 6 96-38 184-48 268-42v326H0z" fill="#b98a5c"/><path d="M0 532c146-38 292-22 446 44 150 66 304 80 468 34 100-28 194-28 286-8v98H0z" fill="#855f3b"/><path d="M446 250l76 112" stroke="#5b4332" stroke-width="18" stroke-linecap="round"/><path d="M518 250l-76 112" stroke="#5b4332" stroke-width="18" stroke-linecap="round"/><path d="M480 210c20 0 36 16 36 36 0 18-16 34-36 34s-36-16-36-34c0-20 16-36 36-36z" fill="#964039"/><rect x="446" y="404" width="68" height="120" rx="26" fill="#594030" opacity=".58"/><circle cx="482" cy="380" r="36" fill="#6f5140" opacity=".58"/></svg>
