<svg xmlns="http://www.w3.org/2000/svg" viewBox="0 0 1200 700"><rect width="1200" height="700" fill="#edd9b4"/><rect y="0" width="1200" height="250" fill="#8fb8c8"/><path d="M0 420c182-80 346-78 520 0 168 76 314 76 488 10 72-28 134-36 192-36v306H0z" fill="#c29161"/><g transform="translate(490 278)"><circle cx="0" cy="0" r="54" fill="#e6b17e"/><path d="M-62 54c14-20 34-30 60-30 28 0 52 14 64 34l20 44c8 18-6 38-26 38h-114c-22 0-34-20-26-38z" fill="#56714f"/></g><g transform="translate(710 442)"><rect x="-108" y="32" width="216" height="42" rx="16" fill="#b75e4a"/><circle cx="-108" cy="52" r="24" fill="#d4a37d"/></g><path d="M526 384l114 26" stroke="#f6f0e2" stroke-width="18" stroke-linecap="round"/></svg>
