<svg xmlns="http://www.w3.org/2000/svg" viewBox="0 0 1200 700"><rect width="1200" height="700" fill="#9ec9e0"/><circle cx="932" cy="118" r="64" fill="#f7d66f"/><path d="M0 408c170-98 314-114 504-42 174 66 296 74 464 8 94-38 172-58 232-62v388H0z" fill="#c49b69"/><path d="M0 504c166-46 330-28 474 42 148 72 286 86 426 38 114-40 212-44 300-20v136H0z" fill="#8c6542"/><path d="M780 688c-116-88-158-138-140-178 22-50 98-50 146-96 34-32 24-68 54-98 34-36 76-52 130-66-28 46-76 74-92 110-26 56 30 92 0 146-24 46-74 78-98 116-2 2-2 2 0 0z" fill="#e7c98f"/><g transform="translate(346 390)"><circle cx="0" cy="0" r="42" fill="#e7bb8d"/><rect x="-36" y="40" width="72" height="150" rx="26" fill="#57704c"/><rect x="-24" y="186" width="18" height="88" rx="9" fill="#6f4f34"/><rect x="6" y="186" width="18" height="88" rx="9" fill="#6f4f34"/></g></svg>
