<svg xmlns="http://www.w3.org/2000/svg" viewBox="0 0 1200 700"><rect width="1200" height="700" fill="#d9c2a2"/><path d="M0 454c172-80 336-84 518-10 144 58 284 58 432 10 90-28 174-32 250-24v270H0z" fill="#aa7c52"/><g transform="translate(420 222)"><circle cx="0" cy="0" r="56" fill="#efc194"/><rect x="-48" y="52" width="96" height="230" rx="32" fill="#9a6d3f"/></g><g transform="translate(768 210)"><circle cx="0" cy="0" r="56" fill="#e4b381"/><rect x="-48" y="52" width="96" height="230" rx="32" fill="#5f6d48"/></g><path d="M476 290c68 46 148 56 244 34" stroke="#fff0d7" stroke-width="14" stroke-linecap="round" opacity=".72"/><path d="M274 610c84-24 168-24 252 0" stroke="#674a2d" stroke-width="18" stroke-linecap="round" opacity=".22"/></svg>
