<svg xmlns="http://www.w3.org/2000/svg" viewBox="0 0 1600 700" role="img" aria-labelledby="title desc">
  <title id="title">Gespräch über ewiges Leben</title>
  <desc id="desc">Warmer Innenraum mit Lehrgespräch, Rollen und geöffneten Schriftrollen.</desc>
  <defs>
    <linearGradient id="bg" x1="0" x2="1" y1="0" y2="1">
      <stop offset="0%" stop-color="#f7e6c6"/>
      <stop offset="100%" stop-color="#d7b48b"/>
    </linearGradient>
    <linearGradient id="floor" x1="0" x2="0" y1="0" y2="1">
      <stop offset="0%" stop-color="#af7a4b"/>
      <stop offset="100%" stop-color="#7f5535"/>
    </linearGradient>
  </defs>
  <rect width="1600" height="700" fill="url(#bg)"/>
  <rect y="470" width="1600" height="230" fill="url(#floor)"/>
  <rect x="120" y="90" width="420" height="250" rx="28" fill="#f9f2df" opacity="0.72"/>
  <rect x="1060" y="80" width="360" height="220" rx="28" fill="#fff7ea" opacity="0.65"/>
  <circle cx="320" cy="180" r="72" fill="#f0c89b"/>
  <rect x="250" y="252" width="150" height="170" rx="42" fill="#7d5d92"/>
  <circle cx="720" cy="180" r="72" fill="#d4a176"/>
  <rect x="650" y="252" width="150" height="170" rx="42" fill="#58714a"/>
  <circle cx="1080" cy="210" r="74" fill="#e5bb90"/>
  <rect x="1006" y="284" width="152" height="172" rx="42" fill="#b46940"/>
  <rect x="534" y="300" width="220" height="30" rx="15" fill="#865f3b"/>
  <rect x="520" y="330" width="250" height="28" rx="14" fill="#9f7346"/>
  <g transform="translate(570 250)">
    <rect x="0" y="0" width="180" height="86" rx="20" fill="#f6edd9"/>
    <path d="M18 22c16-8 40-8 56 0 16-8 40-8 56 0 16-8 40-8 56 0v42c-16-8-40-8-56 0-16-8-40-8-56 0-16-8-40-8-56 0z" fill="#e0c28c"/>
  </g>
  <rect x="128" y="520" width="540" height="120" rx="28" fill="#fff7ea" opacity="0.76"/>
  <rect x="804" y="500" width="590" height="128" rx="28" fill="#f9f1dd" opacity="0.75"/>
  <circle cx="1340" cy="170" r="70" fill="#f6d36f" opacity="0.75"/>
  <path d="M1240 520c72-70 160-104 264-104 26 0 58 4 96 12-44 36-66 84-66 142H1164c8-16 34-34 76-50z" fill="#8b6640" opacity="0.36"/>
</svg>
