<svg xmlns="http://www.w3.org/2000/svg" viewBox="0 0 1600 700" role="img" aria-labelledby="title desc">
  <title id="title">Gespräch über ewiges Leben</title>
  <desc id="desc">Ein Lehrgespräch in einem hellen Hofraum mit Schriftrolle, Zuhörenden und sichtbarer Spannung zwischen den Figuren.</desc>
  <defs>
    <linearGradient id="wall" x1="0" x2="0" y1="0" y2="1">
      <stop offset="0%" stop-color="#f7ead0"/>
      <stop offset="100%" stop-color="#ddb98d"/>
    </linearGradient>
    <linearGradient id="floor" x1="0" x2="0" y1="0" y2="1">
      <stop offset="0%" stop-color="#b67f4d"/>
      <stop offset="100%" stop-color="#7c5335"/>
    </linearGradient>
    <filter id="shadow" x="-20%" y="-20%" width="140%" height="140%">
      <feDropShadow dx="0" dy="12" stdDeviation="14" flood-color="#6e4523" flood-opacity="0.22"/>
    </filter>
  </defs>

  <rect width="1600" height="700" fill="url(#wall)"/>
  <rect y="462" width="1600" height="238" fill="url(#floor)"/>
  <rect x="118" y="90" width="412" height="232" rx="30" fill="#fff7e7" opacity="0.65"/>
  <rect x="1060" y="82" width="334" height="204" rx="30" fill="#fff5df" opacity="0.62"/>
  <circle cx="1330" cy="148" r="66" fill="#f4d06e" opacity="0.75"/>

  <g opacity="0.24">
    <rect x="624" y="74" width="352" height="172" rx="26" fill="#fbf4e5"/>
    <path d="M700 130h200" stroke="#c79a65" stroke-width="10" stroke-linecap="round"/>
    <path d="M700 166h200" stroke="#c79a65" stroke-width="10" stroke-linecap="round"/>
  </g>

  <g filter="url(#shadow)">
    <rect x="510" y="324" width="330" height="30" rx="15" fill="#835735"/>
    <rect x="492" y="350" width="364" height="26" rx="13" fill="#9a6a41"/>
    <g transform="translate(570 246)">
      <rect x="0" y="0" width="208" height="94" rx="22" fill="#fbf0dc"/>
      <path d="M18 28c18-10 44-10 62 0 18-10 44-10 62 0 18-10 44-10 62 0v44c-18-10-44-10-62 0-18-10-44-10-62 0-18-10-44-10-62 0z" fill="#dfbf88"/>
      <path d="M104 22v52" stroke="#b7834d" stroke-width="8" stroke-linecap="round"/>
    </g>
  </g>

  <g filter="url(#shadow)">
    <circle cx="318" cy="196" r="68" fill="#efc494"/>
    <path d="M250 260c18-22 42-34 68-34 30 0 58 14 76 38v126c0 22-18 40-40 40h-72c-22 0-40-18-40-40z" fill="#7d6297"/>
    <rect x="274" y="414" width="18" height="88" rx="9" fill="#6c4b32"/>
    <rect x="334" y="414" width="18" height="88" rx="9" fill="#6c4b32"/>
    <path d="M248 282l-60 46" stroke="#7d6297" stroke-width="18" stroke-linecap="round"/>
    <path d="M380 284l70 26" stroke="#7d6297" stroke-width="18" stroke-linecap="round"/>
  </g>

  <g filter="url(#shadow)">
    <circle cx="722" cy="184" r="70" fill="#d5a278"/>
    <path d="M648 254c24-28 48-40 74-40 32 0 62 16 82 42v132c0 24-20 44-44 44h-76c-24 0-44-20-44-44z" fill="#58724e"/>
    <rect x="682" y="420" width="18" height="96" rx="9" fill="#6c4b32"/>
    <rect x="742" y="420" width="18" height="96" rx="9" fill="#6c4b32"/>
    <path d="M646 278l-72 18" stroke="#58724e" stroke-width="18" stroke-linecap="round"/>
    <path d="M798 276l76 10" stroke="#58724e" stroke-width="18" stroke-linecap="round"/>
  </g>

  <g filter="url(#shadow)">
    <circle cx="1090" cy="214" r="72" fill="#e6ba8f"/>
    <path d="M1018 286c18-24 44-38 72-38 30 0 58 14 76 40v138c0 24-20 44-44 44h-64c-24 0-44-20-44-44z" fill="#b56c43"/>
    <rect x="1050" y="456" width="18" height="92" rx="9" fill="#6c4b32"/>
    <rect x="1110" y="456" width="18" height="92" rx="9" fill="#6c4b32"/>
  </g>

  <path d="M166 536h474" stroke="#f8efdf" stroke-width="16" stroke-linecap="round" opacity="0.7"/>
  <path d="M842 534h490" stroke="#f8efdf" stroke-width="16" stroke-linecap="round" opacity="0.6"/>
  <path d="M1214 512c64-62 152-96 266-94 26 0 56 4 94 12-40 32-64 76-70 134h-334c18-22 34-38 44-52z" fill="#7f5b3a" opacity="0.22"/>
</svg>
