<svg xmlns="http://www.w3.org/2000/svg" viewBox="0 0 1200 960" role="img" aria-labelledby="title desc">
  <title id="title">Illustration Diskussion und Gesellschaft</title>
  <desc id="desc">Helle, freundliche Illustration zu Austausch, Gesellschaft und Reflexion über künstliche Intelligenz.</desc>
  <defs>
    <linearGradient id="bg" x1="0%" y1="0%" x2="100%" y2="100%">
      <stop offset="0%" stop-color="#fff4e8"/>
      <stop offset="55%" stop-color="#eef7ff"/>
      <stop offset="100%" stop-color="#f2fff8"/>
    </linearGradient>
    <filter id="shadow" x="-20%" y="-20%" width="140%" height="140%">
      <feDropShadow dx="0" dy="18" stdDeviation="20" flood-color="#e9c7ba" flood-opacity="0.42"/>
    </filter>
  </defs>
  <rect width="1200" height="960" fill="url(#bg)"/>
  <circle cx="1020" cy="160" r="110" fill="#e6e8ff"/>
  <circle cx="180" cy="790" r="150" fill="#ffe6d7"/>
  <g filter="url(#shadow)">
    <rect x="110" y="110" width="980" height="740" rx="40" fill="#fffdf9"/>
  </g>
  <rect x="188" y="210" width="364" height="214" rx="30" fill="#dff1ff"/>
  <rect x="220" y="244" width="170" height="18" rx="9" fill="#ffffff"/>
  <rect x="220" y="286" width="126" height="14" rx="7" fill="#ffffff"/>
  <circle cx="446" cy="318" r="58" fill="#ffffff"/>
  <path d="M446 284v68M412 318h68" stroke="#7bcfe5" stroke-width="14" stroke-linecap="round"/>
  <g transform="translate(640 238)">
    <rect x="0" y="0" width="308" height="146" rx="26" fill="#fff2e7"/>
    <rect x="28" y="28" width="154" height="18" rx="9" fill="#ffcfae"/>
    <rect x="28" y="64" width="222" height="14" rx="7" fill="#ffffff"/>
    <rect x="28" y="96" width="186" height="14" rx="7" fill="#ffffff"/>
  </g>
  <g transform="translate(204 504)">
    <circle cx="120" cy="94" r="78" fill="#ffd3ba"/>
    <path d="M38 198c18-44 60-72 114-72s96 28 114 72" fill="#ffe5d3"/>
    <circle cx="122" cy="90" r="30" fill="#1f2f3b"/>
    <circle cx="120" cy="88" r="28" fill="#ffb58d"/>
  </g>
  <g transform="translate(484 490)">
    <circle cx="120" cy="96" r="78" fill="#cfe8ff"/>
    <path d="M36 204c22-46 64-74 118-74s96 28 118 74" fill="#e3f2ff"/>
    <circle cx="122" cy="90" r="28" fill="#ffbf98"/>
    <path d="M90 66c16-20 51-34 82-16 22 14 28 34 28 50H70c0-14 6-24 20-34Z" fill="#5c7d92"/>
  </g>
  <g transform="translate(760 510)">
    <circle cx="110" cy="86" r="70" fill="#d9f6eb"/>
    <path d="M34 184c18-38 54-60 100-60s82 22 100 60" fill="#e9fbf4"/>
    <circle cx="110" cy="82" r="28" fill="#ffc09a"/>
    <path d="M80 74c4-24 22-42 48-42 24 0 40 14 48 36-20-8-58-4-96 6Z" fill="#5269b0"/>
  </g>
  <path d="M336 654c78 28 154 38 224 36 86-2 162-24 246-78" fill="none" stroke="#b9d8ea" stroke-width="16" stroke-linecap="round"/>
  <circle cx="580" cy="624" r="24" fill="#ff8f7d"/>
  <circle cx="692" cy="610" r="22" fill="#93d8d0"/>
  <circle cx="798" cy="564" r="22" fill="#a6b8ff"/>
</svg>
