<svg xmlns="http://www.w3.org/2000/svg" viewBox="0 0 1600 900" role="img" aria-labelledby="title desc">
  <title id="title">Projektkurs KI Kartenillustration</title>
  <desc id="desc">Helle Illustration mit digitalen Symbolen, Gespräch und Verantwortung für einen Projektkurs zu KI.</desc>
  <defs>
    <linearGradient id="bg" x1="0%" y1="0%" x2="100%" y2="100%">
      <stop offset="0%" stop-color="#ffeedd"/>
      <stop offset="50%" stop-color="#eff8ff"/>
      <stop offset="100%" stop-color="#ecfff6"/>
    </linearGradient>
    <linearGradient id="card" x1="0%" y1="0%" x2="100%" y2="100%">
      <stop offset="0%" stop-color="#ffffff"/>
      <stop offset="100%" stop-color="#fffaf4"/>
    </linearGradient>
    <filter id="shadow" x="-20%" y="-20%" width="140%" height="140%">
      <feDropShadow dx="0" dy="18" stdDeviation="22" flood-color="#eec6a7" flood-opacity="0.45"/>
    </filter>
  </defs>
  <rect width="1600" height="900" fill="url(#bg)"/>
  <circle cx="1330" cy="180" r="120" fill="#dff2ff"/>
  <circle cx="220" cy="760" r="150" fill="#ffe6cf"/>
  <g filter="url(#shadow)">
    <rect x="130" y="120" width="1340" height="660" rx="42" fill="url(#card)"/>
  </g>
  <g transform="translate(215 212)">
    <rect x="0" y="0" width="420" height="300" rx="30" fill="#10243f"/>
    <rect x="28" y="28" width="364" height="244" rx="22" fill="#f5fbff"/>
    <circle cx="210" cy="150" r="68" fill="#dff1ff"/>
    <circle cx="210" cy="150" r="34" fill="#8fd7ff"/>
    <path d="M210 82v38M210 180v38M142 150h38M240 150h38" stroke="#64c7bf" stroke-width="14" stroke-linecap="round"/>
    <circle cx="210" cy="150" r="98" fill="none" stroke="#bdeedc" stroke-width="14" stroke-dasharray="2 28" stroke-linecap="round"/>
  </g>
  <g transform="translate(730 182)">
    <rect x="0" y="0" width="540" height="200" rx="34" fill="#f8fcff" stroke="#d8e8f5" stroke-width="4"/>
    <rect x="34" y="34" width="180" height="24" rx="12" fill="#ffdbc0"/>
    <rect x="34" y="82" width="290" height="18" rx="9" fill="#cfe8ff"/>
    <rect x="34" y="118" width="230" height="18" rx="9" fill="#daf4eb"/>
    <rect x="362" y="46" width="130" height="110" rx="28" fill="#fff1e4"/>
    <path d="M426 74c26 0 48 22 48 48" fill="none" stroke="#ff9d69" stroke-width="12" stroke-linecap="round"/>
    <path d="M394 118c0-18 14-32 32-32" fill="none" stroke="#8eddd4" stroke-width="12" stroke-linecap="round"/>
  </g>
  <g transform="translate(732 428)">
    <rect x="0" y="0" width="260" height="196" rx="30" fill="#fff5ec" stroke="#f1d6bd" stroke-width="4"/>
    <circle cx="130" cy="72" r="42" fill="#ffc6a3"/>
    <path d="M78 154c16-28 45-44 77-44s61 16 77 44" fill="#ffd9bf"/>
  </g>
  <g transform="translate(1034 428)">
    <rect x="0" y="0" width="236" height="196" rx="30" fill="#f1fbff" stroke="#d6edf7" stroke-width="4"/>
    <rect x="32" y="40" width="172" height="22" rx="11" fill="#d1e9ff"/>
    <rect x="32" y="84" width="124" height="18" rx="9" fill="#d8f5e7"/>
    <rect x="32" y="124" width="146" height="18" rx="9" fill="#ffe1c9"/>
  </g>
  <g transform="translate(508 542)">
    <circle cx="0" cy="0" r="12" fill="#8fdaf7"/>
    <circle cx="64" cy="-48" r="12" fill="#9ce9d3"/>
    <circle cx="128" cy="-20" r="12" fill="#ffb78d"/>
    <circle cx="192" cy="-84" r="12" fill="#8fdaf7"/>
    <path d="M0 0 64-48 128-20 192-84" fill="none" stroke="#b7d5ea" stroke-width="10" stroke-linecap="round"/>
  </g>
</svg>
